{
  "accessors": [
    {
      "bufferView": 2,
      "componentType": 5126,
      "count": 27184,
      "max": [
        0.34489163756370544,
        0.7511695623397827,
        0.18538342416286469
      ],
      "min": [
        -0.34646719694137573,
        -0.7365888953208923,
        -0.18021389842033386
      ],
      "type": "VEC3"
    },
    {
      "bufferView": 2,
      "byteOffset": 326208,
      "componentType": 5126,
      "count": 27184,
      "max": [
        0.9999845027923584,
        0.9998006224632263,
        0.9999964833259583
      ],
      "min": [
        -0.999977171421051,
        -0.9999759793281555,
        -0.9999988079071045
      ],
      "type": "VEC3"
    },
    {
      "bufferView": 1,
      "componentType": 5126,
      "count": 27184,
      "max": [
        0.9995737671852112,
        0.9995733499526978
      ],
      "min": [
        0.0,
        0.0
      ],
      "type": "VEC2"
    },
    {
      "bufferView": 0,
      "componentType": 5125,
      "count": 135564,
      "type": "SCALAR"
    }
  ],
  "asset": {
    "extras": {
      "author": "jungle_jim (https://sketchfab.com/jungle_jim)",
      "license": "CC-BY-4.0 (http://creativecommons.org/licenses/by/4.0/)",
      "source": "https://sketchfab.com/3d-models/quadbike-rider-550da710f41f40e180066c58c2e7e5a7",
      "title": "Quadbike rider"
    },
    "generator": "Sketchfab-15.50.0",
    "version": "2.0"
  },
  "bufferViews": [
    {
      "buffer": 0,
      "byteLength": 542256,
      "name": "floatBufferViews",
      "target": 34963
    },
    {
      "buffer": 0,
      "byteLength": 217472,
      "byteOffset": 542256,
      "byteStride": 8,
      "name": "floatBufferViews",
      "target": 34962
    },
    {
      "buffer": 0,
      "byteLength": 652416,
      "byteOffset": 759728,
      "byteStride": 12,
      "name": "floatBufferViews",
      "target": 34962
    }
  ],
  "buffers": [
    {
      "byteLength": 1412144,
      "uri": "scene.bin"
    }
  ],
  "images": [
    {
      "uri": "textures/material_0_baseColor.png"
    }
  ],
  "materials": [
    {
      "name": "material_0",
      "pbrMetallicRoughness": {
        "baseColorTexture": {
          "index": 0
        }
      }
    }
  ],
  "meshes": [
    {
      "name": "Object_0",
      "primitives": [
        {
          "attributes": {
            "NORMAL": 1,
            "POSITION": 0,
            "TEXCOORD_0": 2
          },
          "indices": 3,
          "material": 0,
          "mode": 4
        }
      ]
    }
  ],
  "nodes": [
    {
      "children": [
        1
      ],
      "matrix": [
        1.0,
        0.0,
        0.0,
        0.0,
        0.0,
        2.220446049250313e-16,
        -1.0,
        0.0,
        0.0,
        1.0,
        2.220446049250313e-16,
        0.0,
        0.0,
        0.0,
        0.0,
        1.0
      ],
      "name": "Sketchfab_model"
    },
    {
      "children": [
        2
      ],
      "name": "root"
    },
    {
      "children": [
        3
      ],
      "matrix": [
        1.0,
        0.0,
        0.0,
        0.0,
        0.0,
        2.220446049250313e-16,
        1.0,
        0.0,
        0.0,
        -1.0,
        2.220446049250313e-16,
        0.0,
        0.0,
        0.0,
        0.0,
        1.0
      ],
      "name": "GLTF_SceneRootNode"
    },
    {
      "children": [
        4
      ],
      "name": "world_0"
    },
    {
      "children": [
        5
      ],
      "name": "mesh.obj_1"
    },
    {
      "mesh": 0,
      "name": "Object_5"
    }
  ],
  "samplers": [
    {
      "magFilter": 9729,
      "minFilter": 9987,
      "wrapS": 10497,
      "wrapT": 10497
    }
  ],
  "scene": 0,
  "scenes": [
    {
      "name": "Sketchfab_Scene",
      "nodes": [
        0
      ]
    }
  ],
  "textures": [
    {
      "sampler": 0,
      "source": 0
    }
  ]
}
